<svg xmlns="http://www.w3.org/2000/svg" width="50" height="47" viewBox="0 0 50 47">
    <path fill="#704CB1" fill-rule="nonzero" d="M50 45.448a1.28 1.28 0 0 1-1.28 1.283l-47.4.065h-.002a1.283 1.283 0 0 1-1.28-1.28L0 17.76l.001-.022c.007-.4.197-.791.552-1.036l7.193-4.97V6.46c0-.707.572-1.28 1.28-1.28h8.198L24.275.305a1.28 1.28 0 0 1 1.459.002L32.74 5.18h8.234c.708 0 1.28.574 1.28 1.28v5.334l7.158 4.976c.256.178.426.433.503.71a.73.73 0 0 1 .046.255L50 45.448zM47.435 42.9l-.03-22.76-15.457 10.746L47.435 42.9zm-5.18-22.3l4.092-2.844-4.093-2.844V20.6zM5.064 44.23l39.836-.055L25.02 28.752 5.066 44.23zm34.628-21.849V7.741H10.307v14.697l9.875 6.826 4.052-3.144a1.28 1.28 0 0 1 1.552-.013l.018.013 4.023 3.12 9.866-6.859zM21.73 5.18h6.524L25 2.918 21.73 5.179zM2.596 42.905L18.058 30.91 2.563 20.202l.033 22.703zm5.15-22.237v-5.825l-4.214 2.913 4.214 2.912z"/>
</svg>
