<svg xmlns="http://www.w3.org/2000/svg" width="26" height="26" viewBox="0 0 26 26">
    <g fill="#000" fill-rule="nonzero">
        <path d="M22.165 0H7.028a3.788 3.788 0 0 0-3.784 3.784v9.731A3.788 3.788 0 0 0 7.028 17.3h9.507l5.247 5.248a.545.545 0 0 0 .59.117.54.54 0 0 0 .334-.5v-4.903a3.791 3.791 0 0 0 3.243-3.747v-9.73A3.788 3.788 0 0 0 22.165 0z"/>
        <path d="M16.945 19.462H9.19a.541.541 0 0 0-.382.159l-4.483 4.483v-4.101a.54.54 0 0 0-.54-.541 2.706 2.706 0 0 1-2.704-2.703V7.028c0-.768.328-1.503.9-2.013a.54.54 0 0 0-.72-.807A3.789 3.789 0 0 0 0 7.028v9.731a3.791 3.791 0 0 0 3.244 3.746v4.904a.54.54 0 0 0 .922.382l5.248-5.248h7.531a.54.54 0 0 0 0-1.081z"/>
    </g>
</svg>
