<svg xmlns="http://www.w3.org/2000/svg" width="14.5" height="14.499" viewBox="0 0 14.5 14.499">
    <defs>
        <style>
            .cls-1{fill:#8c4fe6}
        </style>
    </defs>
    <g id="edit_1_" data-name="edit (1)" transform="translate(-161 28.196)">
        <path id="Path_5" d="M13.561.966a3.2 3.2 0 0 0-4.526 0l-8.3 8.3a.415.415 0 0 0-.116.234L0 14.054a.414.414 0 0 0 .117.349.422.422 0 0 0 .294.124.336.336 0 0 0 .056 0l2.744-.371a.418.418 0 1 0-.111-.828l-2.2.3.429-3.176 3.343 3.343a.422.422 0 0 0 .294.124.409.409 0 0 0 .294-.124l8.3-8.3a3.2 3.2 0 0 0 0-4.526zM9.2 1.986l1.393 1.393-7.576 7.573-1.394-1.394zM4.972 12.9L3.61 11.542l7.572-7.572 1.362 1.362zm8.153-8.169L9.792 1.4a2.368 2.368 0 0 1 3.334 3.334z" class="cls-1" data-name="Path 5" transform="translate(161 -28.223)"/>
    </g>
</svg>
