<svg xmlns="http://www.w3.org/2000/svg" width="26" height="31" viewBox="0 0 26 31">
    <g fill="#000" fill-rule="nonzero">
        <path d="M25.868 26.066L23.64 22.38a10.901 10.901 0 0 1-1.57-5.633V13.52c0-4.969-4.07-9.013-9.071-9.013-5.001 0-9.072 4.044-9.072 9.013v3.228c0 1.985-.543 3.932-1.569 5.633L.132 26.066a.64.64 0 0 0-.009.647.651.651 0 0 0 .565.328h24.623a.65.65 0 0 0 .566-.328.64.64 0 0 0-.01-.647z"/>
        <path d="M13 0a2.586 2.586 0 0 0-2.592 2.575v2.576c0 .355.29.643.648.643a.646.646 0 0 0 .648-.643V2.575c0-.71.58-1.287 1.296-1.287.715 0 1.296.577 1.296 1.287v2.576c0 .355.29.643.648.643a.646.646 0 0 0 .648-.643V2.575A2.586 2.586 0 0 0 13 0zM15.804 26.07a.655.655 0 0 0-.887-.23.642.642 0 0 0-.232.882c.168.285.26.626.26.962a1.94 1.94 0 0 1-1.944 1.932 1.94 1.94 0 0 1-1.944-1.932c0-.336.092-.677.26-.962a.644.644 0 0 0-.231-.882.654.654 0 0 0-.888.23 3.182 3.182 0 0 0-.438 1.614c0 1.776 1.453 3.22 3.24 3.22 1.787 0 3.24-1.444 3.242-3.22 0-.569-.151-1.126-.438-1.613z"/>
    </g>
</svg>
