<svg xmlns="http://www.w3.org/2000/svg" width="52.333" height="49.521" viewBox="0 0 52.333 49.521">
    <defs>
        <style>
            .cls-1{fill:#8443e5}
        </style>
    </defs>
    <g id="promotion">
        <path id="Path_20" d="M123.5 291.482a1.022 1.022 0 1 0-1.4-.374 1.023 1.023 0 0 0 1.4.374zm0 0" class="cls-1" data-name="Path 20" transform="translate(-109.497 -259.976)"/>
        <path id="Path_21" d="M9.811 58.631l5.147 8.916a4.088 4.088 0 1 0 7.081-4.088l-3.066-5.312 2.656-1.533a1.022 1.022 0 0 0 .374-1.4l-1.329-2.3 19.578-3.84a3.066 3.066 0 0 0 2.485-4.594L39.34 38.6l2.171-3.288a1.023 1.023 0 0 0 .032-1.074L39.5 30.694a1.024 1.024 0 0 0-.947-.509l-3.932.236-3.771-6.532a3.04 3.04 0 0 0-2.617-1.533h-.039a3.039 3.039 0 0 0-2.582 1.414L12.258 40.779l-8.68 5.012a7.155 7.155 0 0 0 6.233 12.84zm10.459 5.85a2.044 2.044 0 0 1-3.541 2.044l-5.111-8.853 3.541-2.044 5.111 8.853zm-2.319-8.105l-1.022-1.77 1.77-1.022 1.022 1.77zm20.094-24.113l1.413 2.447-1.258 1.908-2.437-4.218zM27.32 24.89a1.022 1.022 0 0 1 1.758.02L40.967 45.5a1.022 1.022 0 0 1-.86 1.532 3.753 3.753 0 0 0-.561.1L26.97 25.348c.264-.339.3-.372.35-.458zm-1.71 2.191l11.816 20.465-17.832 3.5-5.422-9.391zM2.729 54.542A5.107 5.107 0 0 1 4.6 47.561l7.967-4.6 5.111 8.852-7.967 4.6a5.117 5.117 0 0 1-6.981-1.871zm0 0" class="cls-1" data-name="Path 21" transform="translate(0 -20.07)"/>
        <path id="Path_22" d="M49.152 310.084a1.022 1.022 0 0 0-1.4-.374l-1.77 1.022a1.023 1.023 0 0 1-1.4-.374 1.022 1.022 0 0 0-1.77 1.022 3.07 3.07 0 0 0 4.189 1.122l1.77-1.022a1.022 1.022 0 0 0 .374-1.4zm0 0" class="cls-1" data-name="Path 22" transform="translate(-38.319 -277.93)"/>
        <path id="Path_23" d="M442.5 42.61l-5.7 3.169a1.022 1.022 0 0 0 .994 1.786l5.7-3.169a1.022 1.022 0 0 0-.994-1.786zm0 0" class="cls-1" data-name="Path 23" transform="translate(-391.682 -38.139)"/>
        <path id="Path_24" d="M445.3 137.714l-3.949-1.058a1.022 1.022 0 1 0-.529 1.974l3.95 1.058a1.022 1.022 0 1 0 .529-1.974zm0 0" class="cls-1" data-name="Path 24" transform="translate(-395.083 -122.656)"/>
        <path id="Path_25" d="M384.587.758l-1.059 3.95a1.022 1.022 0 1 0 1.975.529l1.059-3.95a1.022 1.022 0 1 0-1.974-.529zm0 0" class="cls-1" data-name="Path 25" transform="translate(-344.294)"/>
    </g>
</svg>
