<svg xmlns="http://www.w3.org/2000/svg" width="26" height="25" viewBox="0 0 26 25">
    <g fill="none" fill-rule="nonzero">
        <path fill="#000" d="M25.877 10.645a2.171 2.171 0 0 0-1.022-1.591 2.089 2.089 0 0 0-1.845-.167c-.491.185-1.044-.071-1.267-.577a9.585 9.585 0 0 0-.965-1.699c-.326-.46-.265-1.063.14-1.402a2.144 2.144 0 0 0 .772-1.695 2.177 2.177 0 0 0-.856-1.692 12.946 12.946 0 0 0-2.8-1.638 2.128 2.128 0 0 0-2.946 1.617c-.087.528-.574.877-1.135.823a9.156 9.156 0 0 0-1.923 0c-.564.053-1.047-.295-1.134-.823A2.132 2.132 0 0 0 7.95.184c-.996.425-1.938.976-2.8 1.638a2.175 2.175 0 0 0-.083 3.39c.405.337.465.94.139 1.4a9.631 9.631 0 0 0-.965 1.697c-.226.508-.784.762-1.28.573a2.08 2.08 0 0 0-1.834.17 2.173 2.173 0 0 0-1.022 1.59 12.922 12.922 0 0 0 0 3.296 2.171 2.171 0 0 0 1.022 1.592c.556.34 1.226.403 1.845.167.493-.187 1.045.07 1.268.576.263.598.587 1.17.964 1.699.327.46.266 1.063-.14 1.402a2.144 2.144 0 0 0-.771 1.695c.013.668.324 1.286.855 1.693a12.946 12.946 0 0 0 2.8 1.637c.274.115.56.174.846.174a2.128 2.128 0 0 0 2.1-1.792c.088-.528.572-.881 1.136-.823.63.067 1.289.067 1.923 0 .56-.06 1.047.295 1.134.823a2.132 2.132 0 0 0 2.946 1.617 12.946 12.946 0 0 0 2.8-1.638 2.175 2.175 0 0 0 .083-3.389c-.406-.337-.466-.94-.14-1.399.378-.53.703-1.102.966-1.698.224-.507.776-.764 1.268-.577l.198-.535-.187.54c.61.232 1.277.17 1.834-.171a2.173 2.173 0 0 0 1.022-1.59 12.932 12.932 0 0 0 0-3.296z"/>
        <path fill="#FFF" d="M12.991 7.146c-2.803 0-5.083 2.309-5.083 5.146 0 2.836 2.28 5.145 5.083 5.145 2.803 0 5.084-2.309 5.084-5.145 0-2.837-2.281-5.146-5.084-5.146z"/>
    </g>
</svg>
