<svg xmlns="http://www.w3.org/2000/svg" id="_045-chat-1" width="25.95" height="25.949" data-name="045-chat-1" viewBox="0 0 25.95 25.949">
    <defs>
        <style>
            .cls-1{fill:#b8b8b8}
        </style>
    </defs>
    <path id="Shape" d="M18.922 22.706a.548.548 0 0 1-.382-.158L13.291 17.3H3.785A3.789 3.789 0 0 1 0 13.515v-9.73A3.789 3.789 0 0 1 3.785 0h15.137a3.789 3.789 0 0 1 3.785 3.784v9.731a3.8 3.8 0 0 1-3.245 3.747v4.9a.539.539 0 0 1-.334.5.547.547 0 0 1-.206.044zM3.785 1.081a2.707 2.707 0 0 0-2.7 2.7v9.731a2.706 2.706 0 0 0 2.7 2.7h9.731a.54.54 0 0 1 .383.158l4.483 4.484v-4.1a.542.542 0 0 1 .541-.541 2.706 2.706 0 0 0 2.7-2.7V3.785a2.706 2.706 0 0 0-2.7-2.7z" class="cls-1" transform="translate(3.244)"/>
    <path id="Shape-2" d="M16.945 15.391H9.19a.541.541 0 0 0-.383.159l-4.482 4.483v-4.1a.541.541 0 0 0-.541-.541 2.706 2.706 0 0 1-2.7-2.7V2.957a2.7 2.7 0 0 1 .9-2.013.541.541 0 0 0-.723-.807A3.789 3.789 0 0 0 0 2.957v9.731a3.791 3.791 0 0 0 3.244 3.746v4.9a.541.541 0 0 0 .334.5.554.554 0 0 0 .207.041.54.54 0 0 0 .382-.158l5.248-5.248h7.531a.541.541 0 1 0 0-1.081z" class="cls-1" data-name="Shape" transform="translate(0 4.071)"/>
</svg>
