<svg xmlns="http://www.w3.org/2000/svg" width="21.667" height="26" viewBox="0 0 21.667 26">
    <defs>
        <style>
            .cls-1{fill:#b8b8b8}
        </style>
    </defs>
    <g id="_211-notification" data-name="211-notification" transform="translate(-.033)">
        <path id="Shape" d="M21.126 18.958H.542a.541.541 0 0 1-.464-.82l1.861-3.1A9.22 9.22 0 0 0 3.251 10.3V7.583a7.583 7.583 0 1 1 15.166 0V10.3a9.22 9.22 0 0 0 1.312 4.739l1.861 3.1a.541.541 0 0 1-.464.82zM10.834 1.084a6.508 6.508 0 0 0-6.5 6.5V10.3a10.29 10.29 0 0 1-1.466 5.295L1.5 17.875h18.669L18.8 15.594a10.3 10.3 0 0 1-1.466-5.294V7.583a6.507 6.507 0 0 0-6.5-6.499z" class="cls-1" transform="translate(.033 3.792)"/>
        <path id="Shape-2" d="M2.167 0A2.169 2.169 0 0 0 0 2.167v2.166a.542.542 0 0 0 1.083 0V2.167a1.083 1.083 0 1 1 2.167 0v2.166a.542.542 0 0 0 1.083 0V2.167A2.169 2.169 0 0 0 2.167 0z" class="cls-1" data-name="Shape" transform="translate(8.701)"/>
        <path id="Shape-3" d="M5.053.267a.542.542 0 0 0-.936.548 1.625 1.625 0 1 1-2.817 0A.542.542 0 0 0 .366.267a2.709 2.709 0 1 0 5.053 1.357A2.69 2.69 0 0 0 5.053.267z" class="cls-1" data-name="Shape" transform="translate(8.159 21.667)"/>
    </g>
</svg>
