<svg xmlns="http://www.w3.org/2000/svg" width="20.193" height="29.643" viewBox="0 0 20.193 29.643">
    <defs>
        <style>
            .cls-1{fill:#8443e5}
        </style>
    </defs>
    <g id="Group_111" data-name="Group 111" transform="translate(172.193 -7389.802)">
        <path id="Path_108" d="M107.8 265.98v.988a1.19 1.19 0 0 1-1.19 1.19H88.793a1.19 1.19 0 0 1-1.19-1.19v-.988H107.8z" class="cls-1" data-name="Path 108" transform="translate(-259.796 7139.241)"/>
        <path id="Path_110" d="M380.895 155.4v6.63h-1.925v-6.357q.964-.119 1.925-.273z" class="cls-1" data-name="Path 110" transform="translate(-533.694 7243.189)"/>
        <path id="Path_111" d="M117.6 17.864a59.4 59.4 0 0 1-14.746 0q-.964-.12-1.925-.272V8.8a59.432 59.432 0 0 0 18.6 0v8.79q-.966.154-1.929.274z" class="cls-1" data-name="Path 111" transform="translate(-272.323 7381)"/>
        <g id="Group_99" data-name="Group 99" transform="translate(-169.869 7407.4)">
            <path id="Path_112" d="M148.506 302.318l-1.759 1.759-4.474 4.473-1.54 1.541-4.271 4.27h-3.081l7.352-7.352 2.932-2.932 1.759-1.759h3.082z" class="cls-1" data-name="Path 112" transform="translate(-132.96 -302.318)"/>
            <path id="Path_113" d="M263.356 412.085h-3.081l-4.27-4.27 1.54-1.541z" class="cls-1" data-name="Path 113" transform="translate(-248.232 -400.041)"/>
            <path id="Path_114" d="M134.133 307.01l-1.541 1.541-6.232-6.232h3.081l1.759 1.759z" class="cls-1" data-name="Path 114" transform="translate(-126.36 -302.318)"/>
        </g>
        <path id="Path_117" d="M102.854 155.674v6.357h-1.925V155.4q.961.154 1.925.274z" class="cls-1" data-name="Path 117" transform="translate(-272.323 7243.189)"/>
    </g>
</svg>
