<svg xmlns="http://www.w3.org/2000/svg" width="21.668" height="26" viewBox="0 0 21.668 26">
    <defs>
        <style>
            .cls-1{fill:#8443e5}
        </style>
    </defs>
    <g id="_211-notification" data-name="211-notification" transform="translate(-.033)">
        <path id="Path" d="M21.59 18.138l-1.861-3.1a9.216 9.216 0 0 1-1.312-4.738V7.583a7.583 7.583 0 1 0-15.167 0V10.3a9.216 9.216 0 0 1-1.312 4.739l-1.861 3.1a.541.541 0 0 0 .465.82h20.583a.541.541 0 0 0 .465-.82z" class="cls-1" transform="translate(.033 3.792)"/>
        <path id="Shape" d="M2.167 0A2.169 2.169 0 0 0 0 2.167v2.166a.542.542 0 0 0 1.083 0V2.167a1.083 1.083 0 1 1 2.167 0v2.166a.542.542 0 0 0 1.083 0V2.167A2.169 2.169 0 0 0 2.167 0z" class="cls-1" transform="translate(8.701)"/>
        <path id="Shape-2" d="M5.053.267a.542.542 0 0 0-.936.548 1.625 1.625 0 1 1-2.817 0A.542.542 0 0 0 .366.267a2.709 2.709 0 1 0 5.053 1.357A2.69 2.69 0 0 0 5.053.267z" class="cls-1" data-name="Shape" transform="translate(8.159 21.667)"/>
    </g>
</svg>
