<svg xmlns="http://www.w3.org/2000/svg" width="16.423" height="12.122" viewBox="0 0 16.423 12.122">
    <defs>
        <style>
            .cls-1{fill:#e543c3}
        </style>
    </defs>
    <g id="list-button" transform="translate(0 -56.132)">
        <g id="Group_21" data-name="Group 21" transform="translate(0 56.132)">
            <path id="Path_27" d="M1.735 56.132a1.735 1.735 0 1 0 1.735 1.735 1.737 1.737 0 0 0-1.735-1.735zm0 2.633a.9.9 0 1 1 .9-.9.9.9 0 0 1-.9.9z" class="cls-1" data-name="Path 27" transform="translate(0 -56.132)"/>
            <path id="Path_28" d="M110.567 85.4h10.883a.665.665 0 1 0 0-1.329h-10.883a.665.665 0 0 0 0 1.329z" class="cls-1" data-name="Path 28" transform="translate(-105.692 -83.005)"/>
            <path id="Path_29" d="M1.735 169.06a1.735 1.735 0 1 0 1.735 1.74 1.737 1.737 0 0 0-1.735-1.74zm0 2.633a.9.9 0 1 1 .9-.9.9.9 0 0 1-.9.9z" class="cls-1" data-name="Path 29" transform="translate(0 -164.734)"/>
            <path id="Path_30" d="M121.45 197h-10.883a.665.665 0 0 0 0 1.329h10.883a.665.665 0 0 0 0-1.329z" class="cls-1" data-name="Path 30" transform="translate(-105.692 -191.605)"/>
            <path id="Path_31" d="M1.735 281.984a1.735 1.735 0 1 0 1.735 1.735 1.737 1.737 0 0 0-1.735-1.735zm0 2.633a.9.9 0 1 1 .9-.9.9.9 0 0 1-.9.9z" class="cls-1" data-name="Path 31" transform="translate(0 -273.332)"/>
            <path id="Path_32" d="M121.45 309.928h-10.883a.665.665 0 0 0 0 1.329h10.883a.665.665 0 0 0 0-1.329z" class="cls-1" data-name="Path 32" transform="translate(-105.692 -300.206)"/>
        </g>
    </g>
</svg>
