<svg xmlns="http://www.w3.org/2000/svg" xmlns:xlink="http://www.w3.org/1999/xlink" width="256" height="130" viewBox="0 0 256 130">
    <defs>
        <path id="a" d="M.261 2.978c0 1.592 1.382 2.885 3.085 2.885S6.431 4.57 6.431 2.978C6.43 1.385 5.049.093 3.346.093S.261 1.385.261 2.978"/>
        <path id="c" d="M.044 2.978A2.886 2.886 0 1 0 2.93.094 2.886 2.886 0 0 0 .044 2.977"/>
        <path id="e" d="M.27.45h39.32v27.842H.27z"/>
        <path id="g" d="M0 .166h101.528v58.416H0z"/>
        <path id="i" d="M.502 2.893c0 1.592 1.383 2.885 3.085 2.885 1.704 0 3.086-1.293 3.086-2.885 0-1.592-1.382-2.885-3.086-2.885C1.885.008.502 1.301.502 2.893"/>
        <path id="k" d="M.389 2.893c0 1.592 1.383 2.885 3.085 2.885S6.56 4.485 6.56 2.893C6.56 1.301 5.177.008 3.474.008 1.772.008.388 1.301.388 2.893"/>
        <path id="m" d="M.507 3.05c0 1.592 1.383 2.886 3.085 2.886 1.703 0 3.086-1.294 3.086-2.885 0-1.592-1.383-2.885-3.086-2.885C1.89.166.507 1.459.507 3.05"/>
        <path id="o" d="M.155 3.57c0 1.702 1.293 3.084 2.884 3.084 1.593 0 2.886-1.382 2.886-3.085S4.632.484 3.039.484C1.448.484.155 1.866.155 3.57"/>
        <path id="q" d="M.384 3.05c0 1.592 1.382 2.886 3.085 2.886S6.555 4.642 6.555 3.05c0-1.592-1.383-2.885-3.086-2.885C1.766.166.384 1.459.384 3.05"/>
    </defs>
    <g fill="none" fill-rule="evenodd">
        <path fill="#BF33CC" d="M66 52c-1.656 0-3 1.344-3 3s1.344 3 3 3 3-1.344 3-3-1.344-3-3-3"/>
        <g transform="translate(63 52)">
            <mask id="b" fill="#fff">
                <use xlink:href="#a"/>
            </mask>
            <path fill="#500491" d="M-2.262 4.363a8.009 8.009 0 0 1 5.238.999 7.286 7.286 0 0 1 2.65 2.647c-.194-1.414-1.038-2.74-2.43-3.557-1.716-1.008-3.818-.977-5.458-.089" mask="url(#b)"/>
        </g>
        <path fill="#BF33CC" d="M41 52c1.656 0 3 1.344 3 3s-1.344 3-3 3-3-1.344-3-3 1.344-3 3-3"/>
        <g transform="translate(38 52)">
            <mask id="d" fill="#fff">
                <use xlink:href="#c"/>
            </mask>
            <path fill="#500491" d="M8.174 4.363a7.083 7.083 0 0 0-4.9.999A7.07 7.07 0 0 0 .798 8.009a4.94 4.94 0 0 1 7.376-3.646" mask="url(#d)"/>
        </g>
        <path fill="#8443E5" d="M64.887 102.364h22.698c1.511 7.02 3.218 14.05-.92 20.794a10.785 10.785 0 0 1-6.558 4.833c-9.183 2.325-17.504.827-27.574-4.089l-1.82-20.655 14.174-.883z"/>
        <path fill="#320E6B" d="M52.903 123.642c10.283 4.983 18.402 6.168 27.11 3.964a10.34 10.34 0 0 0 6.318-4.657c3.92-6.39 2.511-12.912 1.019-19.818l-.08-.37H64.9l-13.76.857 1.763 20.024zm18.855 5.822c-6.033 0-12.195-1.69-19.396-5.205a.396.396 0 0 1-.22-.321l-1.82-20.656a.399.399 0 0 1 .367-.431l14.174-.883h22.722c.185 0 .344.13.383.311l.147.683c1.461 6.756 2.97 13.743-1.117 20.405a11.117 11.117 0 0 1-6.796 5.009c-2.848.72-5.632 1.088-8.444 1.088z"/>
        <path fill="#320E6B" d="M69.36 113.51a.391.391 0 0 1-.347-.211.4.4 0 0 1 .164-.536c.115-.06 2.844-1.483 6.026-.501a.397.397 0 0 1-.229.759c-2.877-.888-5.406.43-5.43.444a.383.383 0 0 1-.184.046"/>
        <path fill="#8443E5" d="M36.54 102.364H13.84c-1.592 7.396-3.4 14.804 1.638 21.877a9.365 9.365 0 0 0 5.112 3.589c9.76 2.731 19.773 2.104 30.122-2.947v-21.636l-14.174-.883z"/>
        <g transform="translate(11.516 101.517)">
            <mask id="f" fill="#fff">
                <use xlink:href="#e"/>
            </mask>
            <path fill="#320E6B" d="M2.64 1.243l-.08.37C.987 8.898-.5 15.78 4.28 22.491a9 9 0 0 0 4.898 3.439c10.129 2.834 19.823 1.914 29.627-2.814V2.103l-13.794-.86H2.641zm17.724 27.049c-3.785 0-7.588-.532-11.394-1.598a9.782 9.782 0 0 1-5.325-3.739c-4.986-7-3.392-14.376-1.85-21.51l.147-.683A.392.392 0 0 1 2.325.45h22.698a.35.35 0 0 1 .024 0l14.174.884a.394.394 0 0 1 .368.395v21.637a.397.397 0 0 1-.221.357c-6.236 3.043-12.595 4.569-19.004 4.569z" mask="url(#f)"/>
        </g>
        <path fill="#8443E5" d="M33.803 102.525l-.244-10.98a1.161 1.161 0 0 0-.834-1.094 1.144 1.144 0 0 0-1.28.482l-11.148 17.253c-3.168 3.698-6.874 5.395-10.875 5.993a3.236 3.236 0 0 1-.772.021c-2.947-.284-5.282-1.79-7.277-3.96a3.786 3.786 0 0 1-.95-1.918c-.232-1.258.937-3.868 1.357-4.914.194-.483.403-.837.906-.948.503-.11 1.235.039 1.609.398.693.666 1.389 2.596 1.389 2.596.454.81 1.29 1.676 2.685.905.244-.135.396-1.656.38-1.937a.717.717 0 0 0-.451-.63l-2.967-1.166a2.395 2.395 0 0 1-1.458-1.721 2.421 2.421 0 0 1 .605-2.182h.001a2.295 2.295 0 0 1 2.078-.683l5.753 1.049c.896.163 1.8-.237 2.29-1.014 6.833-10.93 12.383-23.278 18.113-35.428a3.76 3.76 0 0 1 2.437-2.035l4.115-1.086 12.572-2.934 10.925 2.934 3.91 1.032a4.215 4.215 0 0 1 2.733 2.282C75.067 74.852 80.56 87.05 87.3 97.87a2.585 2.585 0 0 0 2.652 1.176c1.634-.297 4.059-.74 5.51-1.005a2.313 2.313 0 0 1 2.092.687c.549.578.776 1.395.605 2.178a2.39 2.39 0 0 1-1.455 1.717l-4.17 1.64c.99.982.877 1.516 2.684 1.454a1.752 1.752 0 0 0 1.158-.49c.331-.311.79-1.804 1.213-2.21a1.283 1.283 0 0 1 2.053.378c.496 1.02 1.216 2.1 1.364 3.273.19 1.515.306 2.291-.636 3.909-1.4 2.402-4.187 3.35-6.982 3.622a3.3 3.3 0 0 1-.79-.021c-3.998-.6-7.701-2.296-10.867-5.992L70.435 91.068a1.016 1.016 0 0 0-1.147-.416 1.033 1.033 0 0 0-.726.99v10.76"/>
        <g transform="translate(0 56.029)">
            <mask id="h" fill="#fff">
                <use xlink:href="#g"/>
            </mask>
            <path fill="#320E6B" d="M93.216 48.391l.165.195c.454.543.622.744 1.823.705.337-.01.656-.146.901-.38.101-.096.31-.56.45-.867.233-.517.454-1.007.709-1.287-.132.08-.272.149-.419.207l-3.629 1.427zm-87.175.866c.716 1.253 1.516 1.054 2.078.759.124-.277.253-1.344.239-1.601a.32.32 0 0 0-.202-.281l-2.967-1.168a2.75 2.75 0 0 1-.433-.215c.632.772 1.178 2.216 1.285 2.506zm2.905 9.325c-.11 0-.221-.005-.331-.015-2.788-.27-5.25-1.606-7.528-4.086a4.174 4.174 0 0 1-1.05-2.119c-.21-1.139.52-3.046 1.222-4.744l.159-.388c.196-.491.466-1.029 1.185-1.186a2.496 2.496 0 0 1 1.555.212 2.804 2.804 0 0 1-.668-1.294c-.2-.916.064-1.866.706-2.543a2.68 2.68 0 0 1 2.43-.798l5.754 1.049a1.834 1.834 0 0 0 1.89-.837c5.98-9.566 11.066-20.414 15.984-30.904.7-1.495 1.401-2.99 2.104-4.481a4.146 4.146 0 0 1 2.692-2.249l4.116-1.086L51.749.176a.388.388 0 0 1 .188.004l10.925 2.934 3.91 1.032a4.6 4.6 0 0 1 2.987 2.495c.674 1.43 1.345 2.861 2.016 4.293 4.883 10.414 9.931 21.183 15.855 30.695a2.184 2.184 0 0 0 2.25.998l5.511-1.004a2.69 2.69 0 0 1 2.445.802c.64.675.905 1.623.704 2.538a2.799 2.799 0 0 1-.829 1.456 1.673 1.673 0 0 1 1.069-.16c.527.098.98.447 1.214.934.113.232.238.468.37.718.447.84.908 1.708 1.03 2.678l.008.068c.188 1.486.3 2.382-.695 4.092-1.272 2.184-3.722 3.469-7.282 3.816a3.68 3.68 0 0 1-.884-.023c-4.525-.678-8.158-2.682-11.108-6.125a.436.436 0 0 1-.03-.04L70.11 35.26a.624.624 0 0 0-.707-.256.634.634 0 0 0-.448.61v10.76c0 .22-.176.397-.392.397a.394.394 0 0 1-.392-.397v-10.76a1.42 1.42 0 0 1 1.005-1.369c.6-.184 1.238.047 1.586.575l11.281 17.097c2.819 3.283 6.29 5.193 10.613 5.84.23.035.465.041.697.02 3.293-.322 5.542-1.476 6.68-3.43.859-1.475.775-2.138.593-3.588l-.009-.069c-.104-.824-.53-1.627-.942-2.403-.13-.244-.264-.497-.385-.745a.895.895 0 0 0-1.43-.266c-.17.162-.403.681-.59 1.098-.257.567-.424.924-.627 1.116a2.136 2.136 0 0 1-1.412.595c-1.508.051-1.876-.302-2.448-.986a7.904 7.904 0 0 0-.523-.58.401.401 0 0 1-.11-.364.394.394 0 0 1 .243-.29l4.169-1.64a1.989 1.989 0 0 0 1.214-1.433 2.01 2.01 0 0 0-.505-1.816 1.916 1.916 0 0 0-1.74-.572l-5.51 1.004a2.96 2.96 0 0 1-3.052-1.354c-5.95-9.554-11.01-20.344-15.901-30.78-.671-1.43-1.342-2.862-2.016-4.29a3.814 3.814 0 0 0-2.478-2.07l-3.91-1.032L51.83.97 39.354 3.885l-4.106 1.083a3.36 3.36 0 0 0-2.182 1.822c-.703 1.492-1.404 2.985-2.104 4.48C26.034 21.78 20.94 32.65 14.932 42.258a2.613 2.613 0 0 1-2.691 1.192c-1.632-.297-4.232-.77-5.753-1.049a1.906 1.906 0 0 0-1.726.567 2.017 2.017 0 0 0 .712 3.26l2.966 1.166c.402.158.677.542.701.977 0 .02-.023 1.997-.584 2.308-1.27.701-2.442.317-3.214-1.058a.396.396 0 0 1-.028-.06c-.184-.513-.777-1.951-1.29-2.445-.26-.248-.846-.387-1.257-.297-.286.063-.432.228-.624.71l-.162.394c-.44 1.069-1.36 3.292-1.174 4.297.115.649.408 1.242.852 1.72 2.143 2.332 4.442 3.587 7.027 3.837.224.02.453.014.678-.02 4.324-.645 7.798-2.557 10.618-5.84l11.134-17.23a1.528 1.528 0 0 1 1.716-.646 1.55 1.55 0 0 1 1.118 1.466l.244 10.98c.005.22-.166.4-.383.406a.399.399 0 0 1-.4-.388l-.245-10.98a.762.762 0 0 0-.55-.72.75.75 0 0 0-.843.317l-11.15 17.253a.338.338 0 0 1-.031.042c-2.951 3.445-6.586 5.449-11.114 6.126-.177.026-.355.04-.533.04z" mask="url(#h)"/>
        </g>
        <path fill="#8443E5" d="M41.367 4.937c-4.389-.492-7.67-1.858-10.05-3.935a2.05 2.05 0 0 0-2.675-.029 41.513 41.513 0 0 0-5.72 5.86 3.603 3.603 0 0 1-.892.803c-2.845 1.812-5.025 3.779-6.21 5.978a2.51 2.51 0 0 0-.205 1.805c1.434 5.542 2.194 11.083 2.057 16.626a.787.787 0 0 0 .36.687.769.769 0 0 0 .769.036c2.897-1.517 4.944-3.594 6.36-6.086a.876.876 0 0 1 .569-.431.866.866 0 0 1 .698.137c1.652 1.118 3.696 1.754 6.088 1.962l7.305-7.105 1.546-16.308z"/>
        <path fill="#320E6B" d="M29.962.886c-.379 0-.758.13-1.07.392a41.353 41.353 0 0 0-5.665 5.803c-.279.352-.612.652-.989.892-3.004 1.913-4.99 3.82-6.074 5.831a2.102 2.102 0 0 0-.17 1.513c1.526 5.898 2.203 11.372 2.07 16.738a.383.383 0 1 0 .558.36c2.709-1.42 4.737-3.36 6.2-5.93a1.258 1.258 0 0 1 1.831-.421c1.511 1.022 3.437 1.654 5.72 1.875l7.072-6.878L40.94 5.286c-4.121-.519-7.443-1.858-9.879-3.983a1.662 1.662 0 0 0-1.099-.417M18.448 33.249a1.16 1.16 0 0 1-.626-.182 1.19 1.19 0 0 1-.541-1.034c.13-5.288-.538-10.69-2.045-16.513a2.902 2.902 0 0 1 .238-2.092c1.15-2.136 3.226-4.14 6.347-6.127.303-.193.57-.433.795-.717A42.17 42.17 0 0 1 28.391.668a2.43 2.43 0 0 1 3.183.035c2.388 2.083 5.698 3.375 9.836 3.84a.395.395 0 0 1 .347.432L40.21 21.282a.397.397 0 0 1-.118.248l-7.305 7.106a.39.39 0 0 1-.306.11c-2.493-.217-4.604-.9-6.272-2.028a.488.488 0 0 0-.392-.08.487.487 0 0 0-.314.238c-1.541 2.71-3.675 4.752-6.523 6.244-.168.087-.351.13-.533.13"/>
        <path fill="#8443E5" d="M68.2 7.175c.903-1.704 2.308-2.23 3.934-2.238a2.311 2.311 0 0 1 2.04 1.162c2.684 4.592 5.935 8.718 9.7 12.425a1.79 1.79 0 0 1 .374 2.018c-2.685 5.975-4.118 11.996-5.432 17.852a1.05 1.05 0 0 1-.693.768 1.033 1.033 0 0 1-1.008-.206c-3.303-2.974-5.318-7.71-6.808-13.163-3.006-5.283-2.779-11.861-2.107-18.618"/>
        <path fill="#320E6B" d="M68.582 7.294c-.6 6.064-.972 12.965 2.065 18.3.017.03.03.06.038.093 1.718 6.287 3.844 10.409 6.69 12.972a.646.646 0 0 0 .626.126.659.659 0 0 0 .432-.479c1.367-6.088 2.812-12.041 5.458-17.93a1.393 1.393 0 0 0-.29-1.567c-3.838-3.78-7.123-7.987-9.764-12.509a1.912 1.912 0 0 0-1.696-.966c-1.72.007-2.82.613-3.559 1.96m9.22 32.316c-.343 0-.68-.123-.944-.355-2.961-2.666-5.158-6.895-6.916-13.308-3.14-5.558-2.747-12.622-2.133-18.812a.4.4 0 0 1 .045-.147c.868-1.638 2.268-2.438 4.278-2.447a2.714 2.714 0 0 1 2.38 1.357c2.606 4.46 5.848 8.613 9.634 12.342.654.638.838 1.63.459 2.467-2.615 5.819-4.05 11.728-5.407 17.775-.111.495-.476.9-.953 1.057a1.41 1.41 0 0 1-.443.071"/>
        <path fill="#8443E5" d="M53.895 1.28c-7.539.562-13.047 2.585-16.501 6.087a3.096 3.096 0 0 0-.666 1.04c-1.72 4.475-2.054 8.621-.905 12.414.138.444 0 .93-.35 1.233-2.199 1.926-4.058 4.24-5.302 7.25-.452 5.265 1.08 8.893 4.42 11.03 3.785 3.742 6.568 7.757 8.252 12.075l-.294 6.688c7.58 5.876 14.23 5.17 20.212 0v-6.838c.221-4.753 3.23-8.74 8.08-12.223 3.03-2.907 3.174-7.346 2.21-12.372-.317-2.006-1.491-3.888-3.253-5.686a.93.93 0 0 1-.203-.987c1.443-3.793 1.199-7.927-.388-12.333a4.444 4.444 0 0 0-1.316-1.886c-4.305-3.598-8.956-5.5-13.996-5.492"/>
        <path fill="#320E6B" d="M43.063 58.853c6.807 5.179 13.091 5.182 19.196.008V52.26v-.025c.215-4.627 2.918-8.746 8.261-12.592 2.483-2.404 3.131-6.18 2.038-11.882-.286-1.806-1.305-3.575-3.117-5.425a1.443 1.443 0 0 1-.314-1.53c1.355-3.563 1.227-7.48-.392-11.974a3.936 3.936 0 0 0-1.165-1.669c-4.267-3.566-8.858-5.375-13.642-5.375h-.014c-7.385.553-12.823 2.55-16.164 5.938-.24.248-.427.54-.553.866-1.69 4.394-1.99 8.459-.893 12.08a1.68 1.68 0 0 1-.504 1.768c-2.348 2.058-4.03 4.344-5.135 6.987-.41 4.981.963 8.408 4.195 10.478.03.018.057.041.083.066 3.876 3.832 6.692 7.954 8.368 12.251a.523.523 0 0 1 .035.21l-.283 6.421zm9.87 4.878c-3.48 0-7.05-1.41-10.69-4.23a.512.512 0 0 1-.197-.427l.29-6.58c-1.623-4.112-4.334-8.068-8.059-11.759-3.515-2.274-5.065-6.135-4.607-11.475a.502.502 0 0 1 .037-.152c1.166-2.822 2.945-5.255 5.437-7.438a.661.661 0 0 0 .2-.697c-1.166-3.848-.858-8.137.916-12.75.176-.455.436-.863.775-1.212C40.558 3.44 46.217 1.342 53.858.773c.023-.002.047-.001.07-.001 5.025 0 9.83 1.886 14.283 5.608a4.958 4.958 0 0 1 1.468 2.103c1.682 4.67 1.811 8.939.385 12.69a.419.419 0 0 0 .09.447c1.966 2.006 3.076 3.957 3.394 5.964 1.532 7.99-.614 11.144-2.36 12.82a.538.538 0 0 1-.056.047c-5.09 3.655-7.664 7.522-7.868 11.82v6.826a.51.51 0 0 1-.176.387c-3.277 2.831-6.67 4.247-10.156 4.247z"/>
        <path fill="#BF33CC" d="M63.696 56.592c-1.601 0-2.901 1.315-2.901 2.934 0 1.62 1.3 2.934 2.9 2.934 1.601 0 2.901-1.315 2.901-2.934 0-1.62-1.3-2.934-2.9-2.934"/>
        <g transform="translate(61 57)">
            <mask id="j" fill="#fff">
                <use xlink:href="#i"/>
            </mask>
            <path fill="#500491" d="M-1.049 1.962c1.556.804 2.82 2.118 3.47 3.803a6.643 6.643 0 0 1 .345 3.611c.779-1.226.987-2.756.428-4.201C2.504 3.392.83 2.207-1.049 1.962" mask="url(#j)"/>
        </g>
        <path fill="#BF33CC" d="M42 57c1.656 0 3 1.344 3 3s-1.344 3-3 3-3-1.344-3-3 1.344-3 3-3"/>
        <g transform="translate(39 57)">
            <mask id="l" fill="#fff">
                <use xlink:href="#k"/>
            </mask>
            <path fill="#500491" d="M8.11 1.962c-1.555.804-2.818 2.118-3.47 3.803a6.638 6.638 0 0 0-.345 3.611C3.517 8.15 3.31 6.62 3.868 5.175c.689-1.783 2.364-2.968 4.243-3.213" mask="url(#l)"/>
        </g>
        <g>
            <path fill="#4E2B6B" d="M60.593 60.166c-1.703 0-3.086 1.293-3.086 2.885 0 1.592 1.383 2.885 3.086 2.885 1.702 0 3.085-1.293 3.085-2.885 0-1.592-1.383-2.885-3.085-2.885"/>
            <path fill="#BF33CC" d="M60.593 60.166c-1.703 0-3.086 1.293-3.086 2.885 0 1.592 1.383 2.885 3.086 2.885 1.702 0 3.085-1.293 3.085-2.885 0-1.592-1.383-2.885-3.085-2.885"/>
        </g>
        <g transform="translate(57 60)">
            <mask id="n" fill="#fff">
                <use xlink:href="#m"/>
            </mask>
            <path fill="#500491" d="M.613 8.46c.72-1.52.876-3.282.306-4.991A7.027 7.027 0 0 0-1.141.397C.27.934 1.426 2.035 1.914 3.501c.605 1.81.036 3.701-1.302 4.959" mask="url(#n)"/>
        </g>
        <path fill="#BF33CC" d="M55 61c-1.656 0-3 1.344-3 3s1.344 3 3 3c1.655 0 3-1.344 3-3s-1.345-3-3-3"/>
        <g transform="translate(52 61)">
            <mask id="p" fill="#fff">
                <use xlink:href="#o"/>
            </mask>
            <path fill="#500491" d="M-1.272 8.36C-.117 7.08.624 5.365.711 3.452A7.996 7.996 0 0 0-.043-.341C1.013.683 1.649 2.187 1.575 3.828 1.484 5.852.335 7.558-1.272 8.36" mask="url(#p)"/>
        </g>
        <g>
            <path fill="#8443E5" d="M35.197 105.451h34.471v-5.398H35.197z"/>
            <path fill="#8443E5" d="M49.94 116.996h5.472v-13.6h-5.473z"/>
            <path fill="#BF33CC" d="M47.193 60.167c1.622 0 2.939 1.299 2.939 2.899s-1.317 2.898-2.939 2.898c-1.621 0-2.938-1.299-2.938-2.898 0-1.6 1.317-2.9 2.938-2.9"/>
        </g>
        <g transform="translate(43 60)">
            <mask id="r" fill="#fff">
                <use xlink:href="#q"/>
            </mask>
            <path fill="#500491" d="M8.5.166c-1.438.978-2.517 2.43-2.94 4.176a6.63 6.63 0 0 0 .138 3.624c-.936-1.127-1.344-2.621-.982-4.12.447-1.848 1.952-3.22 3.783-3.68" mask="url(#r)"/>
        </g>
        <g>
            <path fill="#BF33CC" d="M50.41 61.262a2.924 2.924 0 0 1 2.923 2.922 2.924 2.924 0 0 1-5.846 0 2.924 2.924 0 0 1 2.923-2.922"/>
            <path fill="#B383FF" d="M50.964 70.1c6.777 0 12.278 8.308 12.278 18.54 0 4.26-2.069 8.184-3.67 11.316-2.246 4.393-4.652 7.225-8.608 7.225-3.846 0-6.445-2.524-8.696-6.71-1.716-3.188-3.582-7.406-3.582-11.83 0-10.233 5.502-18.54 12.278-18.54"/>
            <path fill="#320E6B" d="M26.439 113.592a.392.392 0 0 1-.184-.045c-.025-.013-2.586-1.324-5.474-.443a.394.394 0 1 1-.23-.755c3.207-.979 5.957.438 6.072.498a.395.395 0 0 1-.184.745"/>
            <path fill="#8443E5" d="M49.318 113.017c-4.104-3.267-8.603-4.606-13.411-4.445-3.263.107-6.371.857-9.335 2.202a6.145 6.145 0 0 0-2.35 9.363c.686.891 1.635 1.678 2.884 2.343a4.74 4.74 0 0 0 2.706.545c1.858-.179 3.389-.999 4.732-2.193"/>
            <path fill="#320E6B" d="M29.352 123.442c-.849 0-1.681-.209-2.434-.614-1.262-.672-2.275-1.497-3.01-2.45a6.5 6.5 0 0 1-1.166-5.589 6.503 6.503 0 0 1 3.668-4.376c3.035-1.376 6.226-2.129 9.484-2.235 5.083-.173 9.68 1.354 13.67 4.53a.396.396 0 0 1-.492.618c-3.894-3.099-8.196-4.526-13.152-4.36-3.153.105-6.244.834-9.185 2.167a5.72 5.72 0 0 0-3.227 3.848 5.717 5.717 0 0 0 1.026 4.915c.666.863 1.593 1.615 2.757 2.235a4.34 4.34 0 0 0 2.483.5c1.622-.155 3.097-.84 4.508-2.095a.396.396 0 0 1 .525.59c-1.54 1.37-3.162 2.12-4.957 2.293a5.374 5.374 0 0 1-.498.023"/>
            <path fill="#320E6B" d="M26.755 119.89c-1.906 0-3.395-.595-3.424-.606a.395.395 0 0 1 .3-.731 9.2 9.2 0 0 0 2.914.558c2.142.053 3.874-.689 5.148-2.209a.395.395 0 0 1 .606.507c-1.65 1.969-3.776 2.482-5.544 2.482"/>
            <path fill="#8443E5" d="M34.48 120.87l25.842-13.53c.407-.214.844-.362 1.296-.44 3.451-.58 6.059.123 7.692 2.318 2.062 3.157 1.439 6.058-1.65 8.728a4.734 4.734 0 0 1-2.21 1.078c-1.684.328-3.158.015-4.434-.908a1.287 1.287 0 0 0-1.739.23c-2.376 2.79-5.532 5.181-9.229 6.915"/>
            <path fill="#320E6B" d="M50.049 125.657a.395.395 0 0 1-.168-.753c3.586-1.683 6.731-4.04 9.095-6.814a1.687 1.687 0 0 1 2.269-.295c1.208.873 2.558 1.148 4.129.842a4.349 4.349 0 0 0 2.027-.99c2.983-2.578 3.502-5.26 1.585-8.203-1.51-2.022-3.899-2.727-7.303-2.154-.41.07-.807.205-1.177.399L34.664 121.22l-.367-.7 25.842-13.532c.444-.232.919-.393 1.412-.478 3.679-.619 6.396.212 8.076 2.472l.014.019c2.149 3.288 1.569 6.398-1.722 9.242a5.14 5.14 0 0 1-2.394 1.168c-1.773.345-3.368.017-4.74-.975a.895.895 0 0 0-1.203.16c-2.44 2.865-5.678 5.292-9.366 7.022a.393.393 0 0 1-.167.038M72.979 26.904s-.712-11.849.963-13.983l-.252 15.573-.711-1.59z"/>
            <path fill="#320E6B" d="M25.045 27.03a.395.395 0 0 1-.37-.53c.02-.057 2.062-5.706 1.86-9.41-.067-1.211-.096-2.466-.02-3.711-.112-.905.091-1.942.414-2.928.408-1.708 1.14-3.307 2.391-4.638.178-.222.34-.374.46-.4a.417.417 0 0 1 .478.28.396.396 0 0 1-.103.398c-.101.098-.2.198-.294.3-.504.693-1.58 2.505-2.173 4.297-.48 2.044-.479 4.27-.364 6.359.211 3.866-1.821 9.486-1.908 9.724a.396.396 0 0 1-.371.26m16.778 7.643a.394.394 0 0 1-.384-.487c.452-1.884 3.304-3.627 3.425-3.7a.395.395 0 1 1 .41.676c-.748.453-2.755 1.911-3.067 3.208a.395.395 0 0 1-.384.303m24.342 0a.395.395 0 0 1-.384-.303c-.31-1.297-2.319-2.755-3.066-3.208a.394.394 0 1 1 .41-.676c.12.073 2.973 1.816 3.425 3.7a.395.395 0 0 1-.385.487m2.408 80.308c-1.245 0-3.197-.271-5.878-1.424a.395.395 0 1 1 .312-.726c4.624 1.988 6.917 1.204 6.94 1.196a.396.396 0 0 1 .506.234.394.394 0 0 1-.23.506c-.048.018-.594.214-1.65.214M50.135 41.314a.588.588 0 0 1 .69-.615c.488.081 1.193.19 2.025.292 1.116.138 2.487.135 3.477-.032a.582.582 0 0 1 .723.624c-.01.166-.027.332-.041.474a.59.59 0 0 1-.434.51c-2.143.568-4.13.534-5.985-.021a.588.588 0 0 1-.414-.53c-.013-.205-.027-.462-.041-.702"/>
            <path fill="#7538D6" d="M46.267 50.41s7.831 4.898 14.532.502c0 0-1.592 3.676-7.705 3.434-5.278-.21-6.827-3.936-6.827-3.936"/>
            <path fill="#320E6B" d="M58.292 38.32c-1.984 0-3.449-1.158-4.235-1.975a.569.569 0 0 0-.769-.055c-.843.665-2.56 1.788-4.598 1.838-3.084.07-5.503-5.241-5.605-5.468a.395.395 0 0 1 .722-.322 16.54 16.54 0 0 0 1.51 2.583c.802 1.107 2.022 2.418 3.308 2.418h.046c1.808-.045 3.361-1.065 4.127-1.668a1.356 1.356 0 0 1 1.83.127c.879.914 2.73 2.32 5.231 1.457 3.596-1.242 4.699-4.496 4.71-4.529a.396.396 0 0 1 .75.244c-.047.149-1.222 3.658-5.202 5.031a5.553 5.553 0 0 1-1.825.319"/>
            <path fill="#5D2DAA" d="M42.478 21.74h-.016a.396.396 0 0 1-.379-.41c.114-2.84 1.963-5.856 3.665-5.978.746-.054 1.486.38 2.198 1.289.493.63.793 1.266.806 1.292a.395.395 0 0 1-.716.336c-.29-.616-1.254-2.197-2.231-2.129-1.168.083-2.83 2.68-2.932 5.221a.396.396 0 0 1-.395.38m23.033 0a.395.395 0 0 1-.394-.38c-.102-2.54-1.764-5.138-2.931-5.22-.984-.065-1.942 1.512-2.232 2.128a.396.396 0 0 1-.716-.336c.13-.276 1.314-2.7 3.004-2.581 1.701.122 3.551 3.138 3.665 5.978a.396.396 0 0 1-.38.41h-.016"/>
            <path fill="#320E6B" d="M58.13 22.13c1.21.223 4.392 3.176 8.062.995 0 0 1.38-.157.847 1.047-.533 1.203-6.92 2.773-9.327-.315-.526-.674-.164-1.834.419-1.726M49.614 22.13c-1.21.223-4.391 3.176-8.061.995 0 0-1.38-.157-.847 1.047.532 1.203 6.919 2.773 9.327-.315.526-.674.164-1.834-.419-1.726M54.53 31.775a1.958 1.958 0 0 1-1.52.026c-1.78-.699-3.24-1.777-3.42-4.368a1.967 1.967 0 0 1 1.099-1.903c1.884-.91 3.892-.853 6.017.076a1.958 1.958 0 0 1 1.157 2.107c-.266 1.774-1.296 3.168-3.334 4.062M41.4 11.88a.396.396 0 0 1-.392-.351c-.265-2.396.752-3.963 3.024-4.66.232-.072.473-.113.715-.123 1.311-.064 2.442.687 3.456 2.29a.395.395 0 1 1-.667.422c-.862-1.36-1.74-1.971-2.754-1.922a2.05 2.05 0 0 0-.518.088c-1.909.586-2.693 1.799-2.47 3.818a.396.396 0 0 1-.394.438"/>
            <path fill="#8443E5" d="M53.746 26.52c1.204 0 2.181.438 2.181.978s-.977.98-2.18.98c-1.205 0-2.182-.44-2.182-.98s.977-.979 2.181-.979"/>
            <path fill="#320E6B" d="M67.027 14.119l-.025-.002a.395.395 0 0 1-.37-.418c.115-1.857-.623-3.407-2.256-4.738a1.808 1.808 0 0 0-1.003-.403c-2.077-.173-3.365.58-3.932 2.304a.395.395 0 1 1-.75-.247c.687-2.093 2.284-3.051 4.747-2.844a2.59 2.59 0 0 1 1.437.578c1.82 1.483 2.675 3.299 2.546 5.399a.395.395 0 0 1-.394.37"/>
            <path fill="#8443E5" d="M112.602 52.06c0-2.152.409-4.176 1.227-6.07.818-1.895 1.928-3.544 3.333-4.948 1.404-1.404 3.053-2.515 4.95-3.332 1.894-.818 3.918-1.227 6.073-1.227 2.317 0 4.47.464 6.462 1.39a15.162 15.162 0 0 1 5.112 3.843l-4.09 2.331a10.72 10.72 0 0 0-3.354-2.392 9.814 9.814 0 0 0-4.13-.879c-1.5 0-2.904.293-4.213.88a10.893 10.893 0 0 0-3.436 2.411 11.24 11.24 0 0 0-2.31 3.598 11.564 11.564 0 0 0-.839 4.396c0 1.58.28 3.06.839 4.436a11.235 11.235 0 0 0 2.31 3.598 10.875 10.875 0 0 0 3.436 2.412c1.309.586 2.7.879 4.172.879 1.5 0 2.896-.293 4.192-.88a10.625 10.625 0 0 0 3.374-2.39l4.05 2.37a15.402 15.402 0 0 1-5.113 3.803c-1.991.926-4.145 1.39-6.462 1.39-2.155 0-4.18-.409-6.074-1.227-1.896-.817-3.545-1.927-4.949-3.332-1.405-1.403-2.515-3.06-3.333-4.967-.818-1.908-1.227-3.94-1.227-6.092M147.529 49.444c.873-1.036 1.984-1.86 3.333-2.474a10.12 10.12 0 0 1 4.233-.92c2.127 0 3.702.614 4.724 1.84 1.023 1.227 1.534 2.848 1.534 4.866v14.35h-4.458V53.002c0-1.935-1.09-2.903-3.272-2.903-1.363 0-2.658.416-3.885 1.247-1.227.832-1.964 2.024-2.209 3.578v12.184h-4.458v-31.81h4.458v14.147zM181.844 60.401c0-.953-.587-1.771-1.76-2.453-1.172-.68-2.59-1.022-4.253-1.022-1.636 0-3.02.334-4.15 1.002-1.133.668-1.698 1.492-1.698 2.473 0 1.036.565 1.895 1.697 2.576 1.13.682 2.515 1.022 4.151 1.022 1.663 0 3.081-.354 4.254-1.063 1.172-.708 1.759-1.554 1.759-2.535zm.122 4.007c-.682.981-1.704 1.772-3.067 2.371-1.364.6-2.863.9-4.5.9-2.535 0-4.648-.688-6.339-2.065-1.69-1.376-2.535-3.087-2.535-5.131 0-2.07.872-3.788 2.617-5.152 1.745-1.362 3.953-2.044 6.626-2.044 3.027 0 5.371.832 7.035 2.494v-1.676c0-3.162-1.746-4.743-5.235-4.743-2.59 0-4.827.791-6.708 2.371l-2.74-1.84c1.09-1.144 2.563-2.064 4.417-2.76a16.522 16.522 0 0 1 5.849-1.042c2.808 0 4.962.661 6.462 1.983 1.499 1.323 2.25 3.237 2.25 5.745v7.604c0 1.336.012 2.413.04 3.23.027.818.108 1.636.245 2.453h-4.13a11.017 11.017 0 0 1-.246-2.698h-.04zM195.504 49.485c.954-1.036 2.1-1.86 3.436-2.474a9.98 9.98 0 0 1 4.212-.92c2.1 0 3.667.6 4.703 1.8 1.036 1.2 1.554 2.82 1.554 4.865v14.35h-4.458V53.002c0-1.935-1.077-2.903-3.23-2.903-1.391 0-2.7.423-3.927 1.267-1.227.846-1.963 2.045-2.209 3.598v12.144h-4.458V52.878l-.286-6.214h4.418l.245 2.82zM224.705 67.638c-1.5 0-2.911-.28-4.233-.838a11.142 11.142 0 0 1-3.476-2.29 10.603 10.603 0 0 1-2.352-3.434c-.572-1.322-.86-2.746-.86-4.273 0-1.498.28-2.895.84-4.19a10.787 10.787 0 0 1 2.29-3.394c.967-.967 2.12-1.73 3.456-2.29 1.336-.558 2.78-.838 4.335-.838 3.354 0 6.08 1.2 8.18 3.598l-3.558 2.412c-1.2-1.335-2.714-2.003-4.54-2.003-1.827 0-3.374.648-4.642 1.942-1.268 1.295-1.902 2.897-1.902 4.804 0 1.936.634 3.544 1.902 4.825 1.268 1.281 2.801 1.921 4.6 1.921 1.855 0 3.381-.68 4.582-2.044l3.599 2.412a10.851 10.851 0 0 1-3.64 2.699c-1.418.654-2.945.981-4.581.981M251.372 55.004c-.273-1.417-.92-2.59-1.943-3.516-1.022-.926-2.257-1.39-3.702-1.39-1.445 0-2.692.457-3.741 1.37-1.05.913-1.74 2.092-2.066 3.536h11.452zm-5.726 8.586c.954 0 1.868-.245 2.74-.735.872-.491 1.622-1.281 2.25-2.372l3.721 2.167c-.954 1.554-2.188 2.774-3.701 3.66-1.513.884-3.17 1.328-4.969 1.328a9.744 9.744 0 0 1-4.008-.838 10.096 10.096 0 0 1-3.272-2.31 11.172 11.172 0 0 1-2.209-3.455 10.983 10.983 0 0 1-.818-4.232c0-1.471.266-2.855.798-4.15a11.007 11.007 0 0 1 2.188-3.413 10.052 10.052 0 0 1 3.292-2.31c1.268-.56 2.638-.839 4.11-.839 2.89 0 5.317 1.022 7.28 3.067 1.964 2.044 2.945 4.606 2.945 7.686 0 .273-.027.654-.081 1.145h-16.074c.218 1.772.893 3.148 2.025 4.13 1.13.98 2.392 1.471 3.783 1.471zM128.266 98.22h13.415v12.88a15.725 15.725 0 0 1-5.869 4.231c-2.305.967-4.751 1.452-7.341 1.452-2.372 0-4.534-.402-6.483-1.206-1.95-.804-3.62-1.908-5.01-3.312a14.858 14.858 0 0 1-3.231-4.927c-.764-1.88-1.145-3.897-1.145-6.05 0-2.263.409-4.355 1.227-6.277.818-1.922 1.943-3.584 3.374-4.988a15.614 15.614 0 0 1 5.01-3.291c1.908-.79 3.94-1.186 6.094-1.186 2.372 0 4.601.464 6.687 1.39 2.086.927 3.851 2.208 5.297 3.843l-4.09 2.372c-.955-1.036-2.127-1.853-3.518-2.453-1.39-.6-2.863-.9-4.417-.9-1.5 0-2.904.286-4.212.859a10.767 10.767 0 0 0-3.436 2.371c-.981 1.009-1.759 2.201-2.331 3.578-.573 1.376-.859 2.882-.859 4.518 0 1.58.272 3.066.818 4.456a10.91 10.91 0 0 0 2.29 3.619c.982 1.022 2.16 1.826 3.538 2.412 1.377.586 2.884.879 4.52.879 1.554 0 3.08-.28 4.58-.838 1.5-.559 2.768-1.356 3.804-2.392v-6.91h-8.712v-4.13zM160.781 113.348c-.9 1.036-2.011 1.861-3.333 2.474a9.849 9.849 0 0 1-4.192.92c-2.127 0-3.681-.613-4.663-1.84-.981-1.227-1.472-2.848-1.472-4.865v-14.31h4.458v14.064c0 1.936 1.036 2.903 3.108 2.903 1.39 0 2.672-.415 3.845-1.247 1.172-.83 1.894-2.024 2.167-3.577V95.727h4.459v14.718l.327 5.724h-4.5l-.204-2.82zM170.065 95.727h4.417l.205 2.82c.845-.953 1.895-1.737 3.149-2.35a9.97 9.97 0 0 1 4.049-1.002l-.45 3.966c-1.527 0-2.965.396-4.315 1.186-1.35.79-2.134 2.017-2.352 3.68l.041 12.142h-4.458v-14.187l-.286-6.255zM198.367 113.348c-.9 1.036-2.01 1.861-3.333 2.474a9.849 9.849 0 0 1-4.192.92c-2.127 0-3.681-.613-4.663-1.84-.981-1.227-1.473-2.848-1.473-4.865v-14.31h4.459v14.064c0 1.936 1.036 2.903 3.108 2.903 1.39 0 2.673-.415 3.845-1.247 1.172-.83 1.894-2.024 2.168-3.577V95.727h4.458v14.718l.327 5.724h-4.5l-.204-2.82z"/>
        </g>
    </g>
</svg>
