<svg xmlns="http://www.w3.org/2000/svg" width="14.934" height="14.825" viewBox="0 0 14.934 14.825">
    <defs>
        <style>
            .cls-1{fill:#a0a0a0}
        </style>
    </defs>
    <g id="time-left" transform="translate(0 -1.688)">
        <g id="Layer_2_16_" transform="translate(0 1.688)">
            <g id="Group_22" data-name="Group 22">
                <path id="Path_33" d="M253.532 423.173a6.05 6.05 0 0 1-.373.081.6.6 0 0 0 .219 1.181c.148-.028.3-.06.445-.1a.6.6 0 0 0-.29-1.165z" class="cls-1" data-name="Path 33" transform="translate(-244.556 -409.626)"/>
                <path id="Path_34" d="M412.634 137.393a.6.6 0 0 0 1.14-.377 7.266 7.266 0 0 0-.156-.427.6.6 0 1 0-1.115.446c.047.116.091.237.131.358z" class="cls-1" data-name="Path 34" transform="translate(-399.219 -131.892)"/>
                <path id="Path_35" d="M321.492 394.011a5.45 5.45 0 0 1-.325.2.6.6 0 1 0 .6 1.04c.131-.076.261-.156.387-.239a.6.6 0 0 0-.662-1z" class="cls-1" data-name="Path 35" transform="translate(-310.566 -381.32)"/>
                <path id="Path_36" d="M428.835 207.888a.6.6 0 1 0-1.2.047c0 .127.006.255 0 .382a.6.6 0 1 0 1.2.027 5.334 5.334 0 0 0 0-.456z" class="cls-1" data-name="Path 36" transform="translate(-413.907 -200.711)"/>
                <path id="Path_37" d="M377.978 344.189a.6.6 0 0 0-.841.12c-.076.1-.156.2-.239.3a.6.6 0 0 0 .068.846l.044.034a.6.6 0 0 0 .8-.1c.1-.115.194-.235.285-.356a.6.6 0 0 0-.117-.844z" class="cls-1" data-name="Path 37" transform="translate(-364.662 -333.078)"/>
                <path id="Path_38" d="M414.669 279.379a.6.6 0 0 0-.752.393c-.038.121-.08.242-.125.361a.6.6 0 0 0 1.122.427c.054-.141.1-.286.149-.43a.6.6 0 0 0-.394-.751z" class="cls-1" data-name="Path 38" transform="translate(-400.47 -270.438)"/>
                <path id="Path_39" d="M6.356 15.321a6.2 6.2 0 0 1-1.54-.489l-.016-.009a6.054 6.054 0 0 1-.341-.173 6.4 6.4 0 0 1-.6-.373 6.264 6.264 0 0 1 .026-10.262L3.907 4a6.275 6.275 0 0 1 7.033-.056l-.469.678c-.13.189-.05.326.178.306l2.037-.182a.336.336 0 0 0 .3-.439l-.547-1.971c-.061-.221-.218-.247-.349-.059l-.47.679A7.414 7.414 0 0 0 6.192 1.8q-.288.05-.568.121l-.024.006a7.4 7.4 0 0 0-4.1 2.751 4.468 4.468 0 0 0-.126.171 9.663 9.663 0 0 0-.159.235l-.017.029a7.4 7.4 0 0 0-1.19 4.365v.015c.007.151.019.3.035.454v.029c.017.151.038.3.064.454A7.409 7.409 0 0 0 2.2 14.448l.008.008a7.564 7.564 0 0 0 .956.8 7.4 7.4 0 0 0 2.98 1.244.6.6 0 0 0 .212-1.182z" class="cls-1" data-name="Path 39" transform="translate(0 -1.688)"/>
                <path id="Path_40" d="M206.473 83.2a.486.486 0 0 0-.486.486v4.839l4.426 2.288a.486.486 0 0 0 .446-.863l-3.9-2.017v-4.249a.486.486 0 0 0-.486-.484z" class="cls-1" data-name="Path 40" transform="translate(-199.375 -80.581)"/>
            </g>
        </g>
    </g>
</svg>
