<svg xmlns="http://www.w3.org/2000/svg" id="_144-home_copy" width="24.077" height="25.117" data-name="144-home copy" viewBox="0 0 24.077 25.117">
    <defs>
        <style>
            .cls-1{fill:#8443e5}
        </style>
    </defs>
    <path id="Shape" d="M23.94 12.725L12.424.163a.539.539 0 0 0-.772 0L.138 12.725a.524.524 0 0 0 .386.877h2.617v10.992a.524.524 0 0 0 .523.523H8.9a.524.524 0 0 0 .523-.523v-7.852h5.234v7.851a.524.524 0 0 0 .523.523h5.234a.524.524 0 0 0 .523-.523V13.6h2.617a.524.524 0 0 0 .385-.877z" class="cls-1"/>
</svg>
