<svg xmlns="http://www.w3.org/2000/svg" id="_045-chat-1_copy_2" width="25.949" height="25.949" data-name="045-chat-1 copy 2" viewBox="0 0 25.949 25.949">
    <defs>
        <style>
            .cls-1{fill:#8443e5}
        </style>
    </defs>
    <path id="Shape" d="M18.921 0H3.784A3.788 3.788 0 0 0 0 3.784v9.731A3.788 3.788 0 0 0 3.784 17.3h9.507l5.247 5.248a.545.545 0 0 0 .383.158.553.553 0 0 0 .207-.041.541.541 0 0 0 .334-.5v-4.9a3.791 3.791 0 0 0 3.244-3.746V3.784A3.788 3.788 0 0 0 18.921 0z" class="cls-1" transform="translate(3.244)"/>
    <path id="Shape-2" d="M16.945 15.391H9.19a.541.541 0 0 0-.383.159l-4.482 4.483v-4.1a.541.541 0 0 0-.541-.541 2.706 2.706 0 0 1-2.7-2.7V2.957a2.7 2.7 0 0 1 .9-2.013.541.541 0 0 0-.723-.807A3.789 3.789 0 0 0 0 2.957v9.731a3.791 3.791 0 0 0 3.244 3.746v4.9a.541.541 0 0 0 .334.5.554.554 0 0 0 .207.041.54.54 0 0 0 .382-.158l5.248-5.248h7.531a.541.541 0 1 0 0-1.081z" class="cls-1" data-name="Shape" transform="translate(0 4.071)"/>
</svg>
