<svg xmlns="http://www.w3.org/2000/svg" width="40.967" height="22.77" viewBox="0 0 40.967 22.77">
    <defs>
        <style>
            .cls-1{fill:#8443e5}
        </style>
    </defs>
    <g id="Group_160" data-name="Group 160" transform="translate(-981.7 -24.1)">
        <g id="Group_122" data-name="Group 122" transform="rotate(90 487.971 512.072)">
            <path id="Path_122" d="M22.77 18.343H8.855a1.889 1.889 0 0 1-1.4-3.163 1.868 1.868 0 0 1 0-2.53 1.839 1.839 0 0 1-.377-1.9H1.9a1.9 1.9 0 0 1 0-3.8h12.65V3.8a3.8 3.8 0 0 1 3.8-3.8.632.632 0 0 1 .633.633v6.325h3.8v11.385zm-3.8-10.12h-.633a.632.632 0 0 1-.633-.633V1.345a2.534 2.534 0 0 0-1.9 2.45v3.8a.632.632 0 0 1-.633.633H1.9a.633.633 0 1 0 0 1.265h10.75v1.265h-3.8a.633.633 0 1 0 0 1.265h3.8v1.265h-3.8a.633.633 0 1 0 0 1.265h3.8v1.265h-3.8a.633.633 0 1 0 0 1.265h10.12z" class="cls-1" data-name="Path 122"/>
        </g>
        <g id="Group_123" data-name="Group 123" transform="rotate(90 499.284 523.384)">
            <path id="Path_122-2" d="M22.77 0H8.855a1.889 1.889 0 0 0-1.4 3.163 1.868 1.868 0 0 0 0 2.53 1.839 1.839 0 0 0-.377 1.9H1.9a1.9 1.9 0 0 0 0 3.8h12.65v3.163a3.8 3.8 0 0 0 3.8 3.8.632.632 0 0 0 .633-.633v-6.338h3.8V0zm-3.8 10.12h-.633a.632.632 0 0 0-.633.633V17a2.534 2.534 0 0 1-1.9-2.45v-3.8a.632.632 0 0 0-.633-.633H1.9a.633.633 0 1 1 0-1.265h10.75V7.59h-3.8a.633.633 0 1 1 0-1.265h3.8V5.06h-3.8a.633.633 0 1 1 0-1.265h3.8V2.53h-3.8a.633.633 0 1 1 0-1.265h10.12z" class="cls-1" data-name="Path 122"/>
        </g>
    </g>
</svg>
