<svg xmlns="http://www.w3.org/2000/svg" width="26" height="26" viewBox="0 0 26 26">
    <g fill="#000" fill-rule="nonzero">
        <path d="M25.438 9.74H1.605a.542.542 0 0 0-.542.542v13a2.711 2.711 0 0 0 2.709 2.708h19.5a2.711 2.711 0 0 0 2.708-2.708v-13c0-.299-.243-.542-.542-.542zm-.541 13.542c0 .896-.73 1.625-1.625 1.625h-19.5c-.896 0-1.625-.73-1.625-1.625V10.824h22.75v12.458z"/>
        <path d="M25.963 4.728L25.04 1.23A1.636 1.636 0 0 0 23.098.04L1.273 5.218a1.612 1.612 0 0 0-1.022.734c-.23.375-.3.817-.19 1.246l1.02 4.034a.54.54 0 0 0 .658.392.54.54 0 0 0 .391-.657l-.06-.235L25.56 5.395a.546.546 0 0 0 .404-.667zM1.805 9.68L1.11 6.934a.544.544 0 0 1 .41-.661l21.824-5.178a.548.548 0 0 1 .647.403l.781 2.963-22.967 5.22z"/>
        <path d="M6.181 9.797a.546.546 0 0 0-.728.242l-2.167 4.334a.543.543 0 0 0 .971.484l2.167-4.333a.543.543 0 0 0-.243-.727zM11.597 9.797a.545.545 0 0 0-.727.242l-2.167 4.334a.543.543 0 0 0 .97.484l2.166-4.333a.543.543 0 0 0-.242-.727zM17.013 9.797a.545.545 0 0 0-.727.242l-2.166 4.334a.543.543 0 0 0 .97.484l2.166-4.333a.543.543 0 0 0-.243-.727zM22.43 9.797a.545.545 0 0 0-.727.242l-2.167 4.334a.543.543 0 0 0 .97.484l2.167-4.333a.543.543 0 0 0-.243-.727z"/>
        <path d="M25.438 14.074H1.605c-.299 0-.542 2.607-.542 5.82s.588 4.481.887 4.481c1.344.939 2.427 1.385 3.25 1.34 4.333-.244 10.725-.365 19.175-.365.3 0 1.605-2.243 1.605-5.456 0-3.213-.243-5.82-.542-5.82zM6.843 8.795L3.112 5.064a.542.542 0 0 0-.766.766l3.731 3.732a.544.544 0 0 0 .766-.001.542.542 0 0 0 0-.766zM12.143 7.591L8.408 3.86a.542.542 0 0 0-.766.766l3.734 3.73a.544.544 0 0 0 .767 0 .542.542 0 0 0 0-.765zM17.438 6.387L13.71 2.655a.542.542 0 0 0-.766.766l3.728 3.732a.544.544 0 0 0 .766 0 .542.542 0 0 0 0-.766zM22.731 5.185l-3.729-3.732a.542.542 0 0 0-.766.766l3.73 3.732a.544.544 0 0 0 .765 0 .542.542 0 0 0 0-.766z"/>
    </g>
</svg>
