<svg xmlns="http://www.w3.org/2000/svg" width="13.402" height="16.501" viewBox="0 0 13.402 16.501">
    <defs>
        <style>
            .cls-1{fill:#a8a8a8}
        </style>
    </defs>
    <g id="delete" transform="translate(.003 .001)">
        <path id="Path_1" d="M222.784 154.7a.386.386 0 0 0-.386.386v7.3a.386.386 0 0 0 .773 0v-7.3a.386.386 0 0 0-.387-.386zm0 0" class="cls-1" data-name="Path 1" transform="translate(-213.807 -148.726)"/>
        <path id="Path_2" d="M104.784 154.7a.386.386 0 0 0-.386.386v7.3a.386.386 0 0 0 .773 0v-7.3a.386.386 0 0 0-.387-.386zm0 0" class="cls-1" data-name="Path 2" transform="translate(-100.367 -148.726)"/>
        <path id="Path_3" d="M1.094 4.911v9.521a2.132 2.132 0 0 0 .567 1.47 1.9 1.9 0 0 0 1.381.6h7.312a1.9 1.9 0 0 0 1.381-.6 2.132 2.132 0 0 0 .567-1.47V4.911a1.476 1.476 0 0 0-.379-2.9H9.944v-.486A1.518 1.518 0 0 0 8.414 0H4.982a1.518 1.518 0 0 0-1.53 1.526v.483H1.473a1.476 1.476 0 0 0-.379 2.9zm9.259 10.816H3.042a1.224 1.224 0 0 1-1.175-1.295V4.945h9.661v9.487a1.224 1.224 0 0 1-1.175 1.295zM4.225 1.525a.745.745 0 0 1 .757-.754h3.432a.745.745 0 0 1 .758.754v.483H4.225zM1.473 2.781h10.45a.7.7 0 1 1 0 1.391H1.473a.7.7 0 1 1 0-1.391zm0 0" class="cls-1" data-name="Path 3"/>
        <path id="Path_4" d="M163.784 154.7a.386.386 0 0 0-.386.386v7.3a.386.386 0 0 0 .773 0v-7.3a.386.386 0 0 0-.387-.386zm0 0" class="cls-1" data-name="Path 4" transform="translate(-157.087 -148.726)"/>
    </g>
</svg>
