<svg xmlns="http://www.w3.org/2000/svg" id="director-chair" width="19.393" height="28.016" viewBox="0 0 19.393 28.016">
    <defs>
        <style>
            .cls-1{fill:#b8b8b8}
        </style>
    </defs>
    <g id="Group_75" data-name="Group 75">
        <path id="Path_92" d="M97.707 14.072h-.247V.482a.482.482 0 0 0-.56-.476 53.681 53.681 0 0 1-16.82 0 .482.482 0 0 0-.557.476v13.59h-.247a.482.482 0 0 0-.482.482v.9a1.57 1.57 0 0 0 1.568 1.568h.838l5.207 5.206-4.963 4.963a.482.482 0 0 0 .341.823H84.6a.482.482 0 0 0 .341-.141l3.557-3.557 3.557 3.557a.482.482 0 0 0 .341.141H95.2a.482.482 0 0 0 .341-.823l-4.961-4.96 5.206-5.206h.835a1.57 1.57 0 0 0 1.568-1.568v-.9a.482.482 0 0 0-.482-.485zM80.489 1.043a54.63 54.63 0 0 0 16.008 0V8.09a53.68 53.68 0 0 1-16.008 0zM96.5 9.065v5.008h-.8v-4.9q.4-.05.8-.108zm-1.76.235v4.777H82.246V9.3a54.636 54.636 0 0 0 6.247.359A54.638 54.638 0 0 0 94.74 9.3zm-14.251-.235q.4.059.793.111v4.9h-.793zm2.073 7.96h1.449l3.8 3.8-.725.725zm2.812 0h6.238l-3.119 3.119zm8.665 10.028H92.59l-3.416-3.416.725-.725zm-9.643 0h-1.45l10.028-10.028h1.449zm12.83-11.6a.605.605 0 0 1-.6.6H80.364a.605.605 0 0 1-.6-.6v-.421h17.462v.421z" class="cls-1" data-name="Path 92" transform="translate(-78.796)"/>
    </g>
</svg>
