<svg xmlns="http://www.w3.org/2000/svg" width="30.471" height="26.117" viewBox="0 0 30.471 26.117">
    <defs>
        <style>
            .cls-1{fill:#b8b8b8}
        </style>
    </defs>
    <g id="Group_110" data-name="Group 110" transform="translate(-975 -27)">
        <g id="Group_82" data-name="Group 82" transform="translate(981.385 35.13)">
            <g id="Group_81" data-name="Group 81">
                <path id="Path_96" d="M110.882 173.178a3.6 3.6 0 0 0-3.593 3.593.517.517 0 0 0 .669.495 9.934 9.934 0 0 1 5.847 0 .517.517 0 0 0 .669-.495 3.6 3.6 0 0 0-3.592-3.593zm0 2.613a10.957 10.957 0 0 0-2.461.28 2.56 2.56 0 0 1 4.922 0 10.972 10.972 0 0 0-2.461-.28z" class="cls-1" data-name="Path 96" transform="translate(-107.289 -173.178)"/>
            </g>
        </g>
        <g id="Group_84" data-name="Group 84" transform="translate(991.9 35.13)">
            <g id="Group_83" data-name="Group 83">
                <path id="Path_97" d="M287.567 173.177a3.6 3.6 0 0 0-3.593 3.593.517.517 0 0 0 .669.495 9.935 9.935 0 0 1 5.847 0 .517.517 0 0 0 .669-.495 3.6 3.6 0 0 0-3.592-3.593zm0 2.613a10.965 10.965 0 0 0-2.461.28 2.558 2.558 0 0 1 4.921 0 10.96 10.96 0 0 0-2.46-.28z" class="cls-1" data-name="Path 97" transform="translate(-283.974 -173.177)"/>
            </g>
        </g>
        <g id="Group_86" data-name="Group 86" transform="translate(984.177 41.848)">
            <g id="Group_85" data-name="Group 85">
                <path id="Path_98" d="M166.1 286.172a.517.517 0 0 0-.459-.079 18.315 18.315 0 0 1-10.779 0 .517.517 0 0 0-.669.495 6.059 6.059 0 0 0 12.117 0 .518.518 0 0 0-.21-.416zm-5.849 5.44a5.032 5.032 0 0 1-4.976-4.324 19.331 19.331 0 0 0 9.951 0 5.032 5.032 0 0 1-4.971 4.324z" class="cls-1" data-name="Path 98" transform="translate(-154.196 -286.07)"/>
            </g>
        </g>
        <g id="Group_88" data-name="Group 88" transform="translate(975 27)">
            <g id="Group_87" data-name="Group 87">
                <path id="Path_99" d="M29.953 55.038a1.671 1.671 0 0 1-1.669-1.669v-5.528a2.707 2.707 0 0 0-2.69-2.7V38.3a.517.517 0 0 0-.392-.5 41.238 41.238 0 0 0-19.934 0 .517.517 0 0 0-.392.5v6.837a2.707 2.707 0 0 0-2.69 2.7v5.528a1.671 1.671 0 0 1-1.669 1.673.517.517 0 0 0 0 1.035 2.707 2.707 0 0 0 2.7-2.7v-5.532a1.671 1.671 0 0 1 1.655-1.669v6.163a10.359 10.359 0 0 0 20.717 0v-6.163a1.671 1.671 0 0 1 1.655 1.669v5.528a2.707 2.707 0 0 0 2.7 2.7.517.517 0 0 0 0-1.035zm-5.394-2.7a9.324 9.324 0 0 1-18.648 0V38.706a40.208 40.208 0 0 1 18.648 0v13.628z" class="cls-1" data-name="Path 99" transform="translate(0 -36.576)"/>
            </g>
        </g>
    </g>
</svg>
