<svg xmlns="http://www.w3.org/2000/svg" width="26" height="27" viewBox="0 0 26 27">
    <path fill="#000" fill-rule="nonzero" d="M25.813 13.675L13.412.175a.581.581 0 0 0-.831 0L.18 13.675a.56.56 0 0 0 .416.942h2.818V26.43c0 .31.253.562.564.562h5.637a.563.563 0 0 0 .563-.562v-8.438h5.637v8.438c0 .31.253.562.564.562h5.637a.563.563 0 0 0 .563-.562V14.617h2.819a.561.561 0 0 0 .415-.942zm-3.797-.183a.563.563 0 0 0-.564.563v11.812h-4.51V17.43a.563.563 0 0 0-.563-.563H9.615a.563.563 0 0 0-.564.563v8.437H4.54V14.055a.563.563 0 0 0-.563-.563h-2.1L12.996 1.387l11.12 12.105h-2.101z"/>
</svg>
